<svg width="87" height="108" viewBox="0 0 87 108" fill="none" xmlns="http://www.w3.org/2000/svg">
<path fill-rule="evenodd" clip-rule="evenodd" d="M70.3965 3.3862e-05C71.8624 1.25483 73.4 2.75749 74.9235 4.47586L72.128 6.23184C70.6925 4.61267 69.257 3.21214 67.9094 2.0586L70.3965 3.3862e-05ZM81.9339 14.5402C83.7367 17.9227 85.2293 21.6658 86.1451 25.6789L82.7197 26.2328C81.8601 22.4666 80.4561 18.9405 78.7513 15.7419L81.9339 14.5402ZM12.0409 40.1952C15.6739 37.9291 19.7834 36.5491 23.9816 36.0234L24.4948 38.9275C20.8497 39.3839 17.2798 40.5817 14.1177 42.5541L12.0409 40.1952ZM36.8562 37.0938C40.8729 38.312 44.574 40.3692 47.5557 43.2278L44.9345 45.1649C42.3537 42.6906 39.153 40.9111 35.6738 39.856L36.8562 37.0938ZM87 37.3734C86.6874 41.0959 85.7946 44.9425 84.1684 48.8565L80.8758 47.8873C82.3971 44.2258 83.2292 40.636 83.5205 37.1664L87 37.3734ZM1.21769 53.4304C1.90085 51.6334 2.73656 49.9728 3.70375 48.4482L6.78064 49.8312C5.91623 51.1938 5.16135 52.6905 4.53985 54.3253C3.92351 55.9465 3.58186 57.5241 3.48286 59.0451L-3.22212e-05 58.8845C0.115866 57.1038 0.514617 55.2798 1.21769 53.4304ZM53.5481 52.8339C54.0794 54.5027 54.4417 56.2825 54.6141 58.1693C54.7881 60.0735 54.6891 61.9711 54.3562 63.851L50.9062 63.4182C51.2033 61.7401 51.2888 60.0636 51.1363 58.3945C50.9797 56.6808 50.6521 55.0805 50.1788 53.5938L53.5481 52.8339ZM78.0411 59.3411C76.8354 60.9227 75.4943 62.5055 74.0089 64.086C72.6604 65.521 71.2775 66.8634 69.8661 68.1165L67.3348 66.0964C68.673 64.9083 69.9878 63.6323 71.2732 62.2645C72.6894 60.7576 73.9635 59.2535 75.1054 57.7555L78.0411 59.3411ZM11.99 77.5597C8.21377 75.4598 5.11398 72.7692 3.00512 69.6333L6.04066 68.187C7.84828 70.875 10.5433 73.2363 13.9127 75.11L11.99 77.5597ZM60.2902 75.0678C56.6069 77.2118 52.8335 78.8599 49.0572 80.0592L47.9676 77.6283C46.4611 79.6842 44.7584 81.6878 42.9193 83.6248L40.1944 81.7919C42.8625 78.9817 45.1948 76.0633 47.0182 73.087L50.1184 74.4326C49.5568 75.3493 48.9523 76.2574 48.3096 77.1559C51.6553 76.0566 55.0116 74.5707 58.3062 72.653L60.2902 75.0678ZM36.6276 82.4554C32.1727 82.7743 27.8629 82.509 23.8581 81.747L24.6273 78.8832C28.2779 79.5779 32.2284 79.8237 36.332 79.5299L36.6276 82.4554ZM34.1418 91.6671C30.9643 94.2425 27.6526 96.6377 24.3922 98.8049L22.2305 96.5007C25.4131 94.3851 28.6372 92.0527 31.7224 89.5522L34.1418 91.6671ZM13.9068 105.153C11.9415 106.231 10.0865 107.185 8.39698 108L6.66242 105.453C8.2903 104.667 10.0888 103.743 12.0027 102.693L13.9068 105.153Z" fill="#FDC45B"/>
</svg>
