<svg width="78" height="78" viewBox="0 0 78 78" fill="none" xmlns="http://www.w3.org/2000/svg">
<path d="M0.597656 20.5974C0.597656 9.5517 9.55196 0.597412 20.5977 0.597412L57.6323 0.597412C68.678 0.597412 77.6323 9.55172 77.6323 20.5974V57.632C77.6323 68.6777 68.678 77.632 57.6323 77.632H20.5976C9.55195 77.632 0.597656 68.6777 0.597656 57.632L0.597656 20.5974Z" fill="#FDC55E"/>
<path d="M45.5482 46.4878L47.3754 44.6606L40.9191 38.1637V30.0019H38.4828V39.1382L45.5482 46.4878ZM39.5792 54.8932C37.3594 54.8932 35.2614 54.4668 33.2853 53.6141C31.3091 52.7614 29.5834 51.5973 28.1081 50.122C26.6327 48.6467 25.4687 46.9209 24.616 44.9448C23.7633 42.9687 23.3369 40.8707 23.3369 38.6509C23.3369 36.4312 23.7633 34.3332 24.616 32.3571C25.4687 30.3809 26.6327 28.6552 28.1081 27.1798C29.5834 25.7045 31.3091 24.5405 33.2853 23.6878C35.2614 22.8351 37.3594 22.4087 39.5792 22.4087C41.7989 22.4087 43.8969 22.8351 45.873 23.6878C47.8492 24.5405 49.5749 25.7045 51.0502 27.1798C52.5256 28.6552 53.6896 30.3809 54.5423 32.3571C55.395 34.3332 55.8214 36.4312 55.8214 38.6509C55.8214 40.8707 55.395 42.9687 54.5423 44.9448C53.6896 46.9209 52.5256 48.6467 51.0502 50.122C49.5749 51.5973 47.8492 52.7614 45.873 53.6141C43.8969 54.4668 41.7989 54.8932 39.5792 54.8932ZM39.5792 52.4568C43.369 52.4568 46.6175 51.1033 49.3245 48.3963C52.0315 45.6892 53.3851 42.4408 53.3851 38.6509C53.3851 34.8611 52.0315 31.6126 49.3245 28.9056C46.6175 26.1985 43.369 24.845 39.5792 24.845C35.7893 24.845 32.5408 26.1985 29.8338 28.9056C27.1268 31.6126 25.7733 34.8611 25.7733 38.6509C25.7733 42.4408 27.1268 45.6892 29.8338 48.3963C32.5408 51.1033 35.7893 52.4568 39.5792 52.4568Z" fill="white"/>
</svg>
