<svg width="101" height="100" viewBox="0 0 101 100" fill="none" xmlns="http://www.w3.org/2000/svg">
<path d="M4.88086 83.3333V66.6667C4.88086 64.6528 5.5933 62.934 7.01817 61.5104C8.44304 60.0868 10.1633 59.375 12.179 59.375H26.8795C28.0611 59.375 29.1906 59.6701 30.2679 60.2604C31.3453 60.8507 32.2662 61.6667 33.0308 62.7083C35.0464 65.625 37.6182 67.8819 40.7459 69.4792C43.8737 71.0764 47.21 71.875 50.7548 71.875C54.2996 71.875 57.6359 71.0764 60.7636 69.4792C63.8914 67.8819 66.4979 65.625 68.5831 62.7083C69.3476 61.6667 70.2512 60.8507 71.2938 60.2604C72.3364 59.6701 73.4485 59.375 74.6301 59.375H89.3306C91.3463 59.375 93.0665 60.0868 94.4914 61.5104C95.9163 62.934 96.6287 64.6528 96.6287 66.6667V83.3333H69.5214V70.9375C67.0192 73.2292 64.1521 75 60.92 76.25C57.688 77.5 54.2996 78.125 50.7548 78.125C47.21 78.125 43.8389 77.5 40.6417 76.25C37.4444 75 34.5599 73.2292 31.9882 70.9375V83.3333H4.88086ZM50.7548 65.625C48.3221 65.625 45.9763 65.0521 43.7173 63.9062C41.4584 62.7604 39.6338 61.1806 38.2437 59.1667C37.1316 57.5694 35.7936 56.2847 34.2297 55.3125C32.6659 54.3403 30.9803 53.6806 29.1732 53.3333C31.1889 51.25 34.3514 49.6528 38.6608 48.5417C42.9701 47.4306 47.0015 46.875 50.7548 46.875C54.5081 46.875 58.5568 47.4306 62.901 48.5417C67.2451 49.6528 70.425 51.25 72.4407 53.3333C70.6335 53.6806 68.948 54.3403 67.3841 55.3125C65.8202 56.2847 64.4822 57.5694 63.3701 59.1667C61.98 61.1806 60.1555 62.7604 57.8965 63.9062C55.6376 65.0521 53.257 65.625 50.7548 65.625ZM17.3919 52.0833C14.2642 52.0833 11.5708 50.9549 9.31186 48.6979C7.05292 46.441 5.92345 43.75 5.92345 40.625C5.92345 37.4306 7.05292 34.7222 9.31186 32.5C11.5708 30.2778 14.2642 29.1667 17.3919 29.1667C20.5892 29.1667 23.2999 30.2778 25.5241 32.5C27.7483 34.7222 28.8604 37.4306 28.8604 40.625C28.8604 43.75 27.7483 46.441 25.5241 48.6979C23.2999 50.9549 20.5892 52.0833 17.3919 52.0833ZM84.1176 52.0833C80.9899 52.0833 78.2965 50.9549 76.0376 48.6979C73.7786 46.441 72.6492 43.75 72.6492 40.625C72.6492 37.4306 73.7786 34.7222 76.0376 32.5C78.2965 30.2778 80.9899 29.1667 84.1176 29.1667C87.3149 29.1667 90.0257 30.2778 92.2498 32.5C94.474 34.7222 95.5861 37.4306 95.5861 40.625C95.5861 43.75 94.474 46.441 92.2498 48.6979C90.0257 50.9549 87.3149 52.0833 84.1176 52.0833ZM50.7548 39.5833C47.627 39.5833 44.9337 38.4549 42.6747 36.1979C40.4158 33.941 39.2863 31.25 39.2863 28.125C39.2863 24.9306 40.4158 22.2222 42.6747 20C44.9337 17.7778 47.627 16.6667 50.7548 16.6667C53.9521 16.6667 56.6628 17.7778 58.887 20C61.1112 22.2222 62.2233 24.9306 62.2233 28.125C62.2233 31.25 61.1112 33.941 58.887 36.1979C56.6628 38.4549 53.9521 39.5833 50.7548 39.5833Z" fill="#CC2C22"/>
</svg>
