<svg width="68" height="88" viewBox="0 0 68 88" fill="none" xmlns="http://www.w3.org/2000/svg">
<path d="M24.3396 49.0833L28.0929 37.1042L18.1883 29.3958H30.2824L34.2442 17L38.1018 29.3958H50.3001L40.3955 37.1042L44.0445 49.0833L34.2442 41.6875L24.3396 49.0833ZM9.6391 87.8333V56.1667C6.51133 52.9028 4.26976 49.3264 2.9144 45.4375C1.55903 41.5486 0.881348 37.625 0.881348 33.6667C0.881348 24.2222 4.07862 16.3056 10.4732 9.91666C16.8677 3.52777 24.7914 0.333328 34.2442 0.333328C43.697 0.333328 51.6207 3.52777 58.0152 9.91666C64.4098 16.3056 67.6071 24.2222 67.6071 33.6667C67.6071 37.625 66.9294 41.5486 65.574 45.4375C64.2187 49.3264 61.9771 52.9028 58.8493 56.1667V87.8333L34.2442 79.6042L9.6391 87.8333ZM34.2442 60.75C41.8204 60.75 48.2323 58.1285 53.48 52.8854C58.7277 47.6424 61.3515 41.2361 61.3515 33.6667C61.3515 26.0972 58.7277 19.691 53.48 14.4479C48.2323 9.20485 41.8204 6.58333 34.2442 6.58333C26.6681 6.58333 20.2561 9.20485 15.0084 14.4479C9.76073 19.691 7.13688 26.0972 7.13688 33.6667C7.13688 41.2361 9.76073 47.6424 15.0084 52.8854C20.2561 58.1285 26.6681 60.75 34.2442 60.75Z" fill="#CC2C22"/>
</svg>
