<svg width="101" height="100" viewBox="0 0 101 100" fill="none" xmlns="http://www.w3.org/2000/svg">
<path d="M44.6036 68.9583L74.1088 39.4792L69.3129 34.7917L44.6036 59.4792L32.0925 46.9792L27.4008 51.6667L44.6036 68.9583ZM50.7548 91.6667C45.0554 91.6667 39.6686 90.5729 34.5947 88.3854C29.5208 86.1979 25.0898 83.2118 21.3017 79.4271C17.5136 75.6424 14.5249 71.2153 12.3354 66.1458C10.146 61.0764 9.05127 55.6944 9.05127 50C9.05127 44.2361 10.146 38.8194 12.3354 33.75C14.5249 28.6806 17.5136 24.2708 21.3017 20.5208C25.0898 16.7708 29.5208 13.8021 34.5947 11.6146C39.6686 9.42708 45.0554 8.33333 50.7548 8.33333C56.5238 8.33333 61.9453 9.42708 67.0192 11.6146C72.0932 13.8021 76.5068 16.7708 80.2601 20.5208C84.0135 24.2708 86.9848 28.6806 89.1743 33.75C91.3637 38.8194 92.4584 44.2361 92.4584 50C92.4584 55.6944 91.3637 61.0764 89.1743 66.1458C86.9848 71.2153 84.0135 75.6424 80.2601 79.4271C76.5068 83.2118 72.0932 86.1979 67.0192 88.3854C61.9453 90.5729 56.5238 91.6667 50.7548 91.6667Z" fill="#CC2C22"/>
</svg>
