<svg width="364" height="278" viewBox="0 0 364 278" fill="none" xmlns="http://www.w3.org/2000/svg">
<mask id="mask0_107_221" style="mask-type:alpha" maskUnits="userSpaceOnUse" x="0" y="0" width="364" height="278">
<path d="M0 76C0 34.0264 34.0264 0 76 0L196 0C288.784 0 364 75.2162 364 168V278H76C34.0264 278 0 243.974 0 202V76Z" fill="#FEE4DF"/>
</mask>
<g mask="url(#mask0_107_221)">
<path d="M214.189 135.571C214.189 135.571 214.216 130.62 210.687 130.964C207.343 131.291 206.121 135.571 206.121 135.571C206.121 135.571 208.158 122.034 202.654 122.89C199.487 123.384 198.568 127.05 198.568 127.05C198.568 127.05 199.915 118.419 195.103 118.501C191.679 118.559 190.088 125.02 190.088 125.02C190.088 125.02 190.308 119.573 186.296 120.853C183.605 121.709 182.872 125.133 182.872 125.133L168.881 180.428L153.072 279.44L208.261 275.681L214.189 135.571Z" fill="#FFA070"/>
<path d="M155.474 193.961C153.027 173.653 153.463 177.196 151.803 167.046C151.609 165.916 149.916 159.704 149.916 159.704C151.124 158.219 153.589 159 155.474 159.704C162.299 162.264 163.062 175.363 167.706 188.085C167.706 188.085 170.84 188.179 176.189 194.117C182.804 201.455 184.263 210.998 183.529 220.784C183.267 221.79 164.463 226.804 162.447 220.944C162.148 220.086 156.69 204.062 155.474 193.961Z" fill="#FFA070"/>
<path d="M183.627 165.9L182.666 165.753C183.674 159.196 184.927 152.161 186.141 145.357C187.355 138.554 188.608 131.525 189.612 124.978L190.573 125.126C189.567 131.684 188.312 138.721 187.098 145.527C185.884 152.332 184.633 159.356 183.627 165.9Z" fill="#E27954"/>
<path d="M193.276 166.144L192.315 165.996C193.321 159.445 194.278 152.854 195.204 146.48C196.13 140.107 197.085 133.527 198.091 126.976L199.052 127.124C198.048 133.671 197.091 140.254 196.167 146.62C195.243 152.986 194.284 159.587 193.276 166.144Z" fill="#E27954"/>
<path d="M202.656 165.574L201.695 165.426C202.699 158.885 203.189 154.55 203.662 150.359C204.135 146.169 204.635 141.815 205.635 135.254L206.608 135.4C205.602 141.943 205.114 146.276 204.639 150.468C204.164 154.661 203.664 159.013 202.656 165.574Z" fill="#E27954"/>
<path d="M188.11 166.5C186.43 166.513 184.751 166.436 183.08 166.268C179.489 165.879 176.73 165.803 175.314 166.074L175.133 165.116C176.641 164.83 179.501 164.897 183.187 165.301C186.999 165.721 191.942 165.472 196.719 165.233C201.555 164.99 206.555 164.739 210.413 165.181L210.302 166.153C206.524 165.721 201.565 165.97 196.767 166.212C193.849 166.35 190.87 166.5 188.11 166.5Z" fill="#E27954"/>
<path d="M190.214 204.78L189.278 204.518C190.035 201.827 193.08 192.376 200.487 183.745L201.226 184.379C193.948 192.848 190.957 202.129 190.214 204.78Z" fill="#E27954"/>
<path d="M173.132 224.43C168.883 224.607 163.465 223.691 162.523 221.047H162.4L160.29 234.277C160.29 234.277 174.854 224.354 173.132 224.43Z" fill="#E27954"/>
<path d="M174.942 193.142C179.065 196.938 180.814 198.523 183.382 203.294C182.766 199.642 181.866 196.043 180.692 192.531C178.676 186.478 168.882 180.428 168.882 180.428L167.701 187.821C168.024 188.807 170.298 188.86 174.942 193.142Z" fill="#E27954"/>
<path d="M186.313 224.594L185.358 224.415C186.041 220.769 185.879 215.23 184.99 211.8L185.932 211.557C186.852 215.103 187.019 220.829 186.313 224.594Z" fill="#E27954"/>
<path d="M290.897 210.17L278.821 98.3591C277.492 98.454 276.162 98.1985 274.963 97.6181C273.764 97.0377 272.738 96.1527 271.988 95.0517L256.305 71.3297L234.758 72.4678C234.257 72.52 233.751 72.4677 233.272 72.3143C232.793 72.1608 232.35 71.9095 231.973 71.5762C231.596 71.2429 231.292 70.835 231.081 70.3782C230.869 69.9214 230.755 69.4257 230.745 68.9225C230.735 68.4192 230.83 67.9194 231.023 67.4547C231.217 66.99 231.504 66.5704 231.868 66.2226C232.232 65.8748 232.664 65.6064 233.137 65.4342C233.61 65.2621 234.114 65.19 234.616 65.2226L261.63 62.1875L231.085 55.0474C230.588 54.9684 230.112 54.7871 229.689 54.5148C229.265 54.2426 228.903 53.8854 228.625 53.4659C228.347 53.0463 228.159 52.5736 228.073 52.0776C227.987 51.5816 228.004 51.0731 228.125 50.5844C228.246 50.0956 228.467 49.6373 228.774 49.2384C229.081 48.8394 229.467 48.5086 229.909 48.2668C230.35 48.025 230.837 47.8776 231.339 47.8337C231.84 47.7899 232.345 47.8507 232.822 48.0123L262.92 52.0707L234.005 40.092C233.522 39.9333 233.078 39.6752 232.702 39.3343C232.325 38.9935 232.024 38.5775 231.818 38.1132C231.611 37.6488 231.505 37.1464 231.505 36.6384C231.505 36.1303 231.611 35.6279 231.817 35.1634C232.023 34.699 232.324 34.2829 232.701 33.942C233.077 33.601 233.521 33.3427 234.004 33.1839C234.486 33.025 234.997 32.969 235.502 33.0195C236.008 33.07 236.497 33.2259 236.939 33.4771L269.146 45.8547L245.591 25.1677C245.173 24.8862 244.819 24.521 244.55 24.0954C244.281 23.6697 244.103 23.1927 244.028 22.6948C243.953 22.1968 243.982 21.6887 244.113 21.2026C244.245 20.7165 244.476 20.2631 244.792 19.8709C245.108 19.4788 245.502 19.1566 245.949 18.9248C246.396 18.6929 246.886 18.5564 247.389 18.5239C247.892 18.4915 248.395 18.5637 248.868 18.7362C249.342 18.9086 249.774 19.1774 250.138 19.5256L283.212 43.5609L313.852 90.8376L344.963 212.137L290.897 210.17Z" fill="#AF6048"/>
<path d="M218.796 2C203.148 2 189.418 10.79 181.405 24.0819C179.459 26.9283 175.568 34.0042 174.358 39.9498C173.156 33.9984 169.257 26.9283 167.313 24.0819C159.293 10.79 145.564 2 129.92 2C105.1 2 84.9775 24.0294 84.9775 51.2048C84.9775 51.4247 85.1721 55.2905 85.3764 57.0628C90.6293 99.5263 170.786 177.338 172.969 179.475C172.983 179.488 172.996 179.503 173.008 179.519L174.348 180.624L175.687 179.523C175.699 179.506 175.712 179.49 175.728 179.475C177.903 177.335 258.073 99.5263 263.32 57.0628C263.534 55.2963 263.709 51.4208 263.709 51.2048C263.728 24.0391 243.619 2 218.796 2Z" fill="#ED5132"/>
<path d="M117.976 277.349L120.077 174.881C121.419 174.741 122.7 174.252 123.792 173.461C124.885 172.671 125.751 171.607 126.303 170.377L137.77 143.98L159.449 141.326C159.958 141.291 160.454 141.15 160.905 140.913C161.356 140.676 161.754 140.347 162.071 139.949C162.389 139.55 162.621 139.09 162.752 138.597C162.882 138.104 162.909 137.589 162.83 137.086C162.752 136.582 162.569 136.1 162.294 135.671C162.02 135.241 161.659 134.873 161.234 134.591C160.81 134.308 160.332 134.116 159.829 134.028C159.327 133.94 158.812 133.957 158.317 134.079L127.698 136.369L160.043 123.316C160.524 123.15 160.966 122.885 161.34 122.54C161.714 122.194 162.012 121.774 162.216 121.307C162.419 120.84 162.524 120.335 162.522 119.826C162.521 119.316 162.413 118.813 162.207 118.347C162.001 117.881 161.7 117.463 161.324 117.119C160.948 116.776 160.505 116.514 160.022 116.35C159.54 116.187 159.029 116.125 158.521 116.17C158.013 116.214 157.521 116.363 157.074 116.608L119.949 130.871L119.591 130.616L154.502 108.921C154.949 108.675 155.341 108.339 155.651 107.933C155.962 107.527 156.185 107.062 156.306 106.565C156.426 106.069 156.442 105.553 156.353 105.05C156.263 104.547 156.07 104.068 155.786 103.644C155.501 103.22 155.131 102.86 154.7 102.586C154.268 102.313 153.785 102.132 153.28 102.056C152.775 101.979 152.259 102.009 151.766 102.142C151.273 102.276 150.813 102.51 150.416 102.831L112.892 125.507L140.324 96.0785C140.691 95.7243 140.98 95.2979 141.173 94.8263C141.366 94.3547 141.459 93.848 141.447 93.3385C141.434 92.829 141.315 92.3278 141.099 91.8664C140.882 91.4051 140.572 90.9938 140.188 90.6586C139.804 90.3234 139.355 90.0715 138.868 89.919C138.382 89.7664 137.869 89.7165 137.363 89.7725C136.856 89.8284 136.367 89.9889 135.926 90.2439C135.484 90.4988 135.101 90.8426 134.799 91.2535L106.063 121.02L83.8395 173.544L69.3276 280.094L117.976 277.349Z" fill="#ED9D80"/>
<path d="M57.6582 66.3607C57.6582 66.3607 52.948 105.089 53.2924 111.497C53.3118 111.834 27.5392 191.763 12.2277 246.565C4.45724 274.386 55.9558 273.577 55.9558 273.577L77.7031 118.787L87.5243 91.3552C88.6917 87.796 89.4444 84.114 89.7675 80.3823L94.9251 47.878H94.9154C94.9494 47.7027 94.9715 47.5252 94.9815 47.3469C95.0438 45.2885 93.534 43.5745 91.6099 43.5161C90.1002 43.4694 88.7947 44.4656 88.2675 45.8877L77.9872 67.886C77.8994 67.9589 77.7929 68.0054 77.6798 68.0203C75.9288 67.9658 73.8821 62.7323 74.9016 58.063C75.0825 57.2381 75.3023 56.3451 75.5378 55.4326L78.5397 46.3897L86.5807 32.9207C88.1254 32.0335 90.6293 30.9323 92.9737 27.5782C96.1897 22.9731 95.0146 18.2396 90.9912 20.4653C86.9678 22.691 82.9989 23.0432 79.3277 28.1035C78.9386 28.6405 78.4716 29.2494 77.9658 29.8973L65.5143 43.9286L60.6232 56.2497C59.5006 58.4852 58.4831 60.7245 58.0551 62.7245C57.9039 63.4811 57.8012 64.2466 57.7477 65.0164L57.6835 65.9483C57.6776 66.0883 57.666 66.2148 57.6582 66.3607Z" fill="#E27954"/>
<path d="M286.422 80.7636C280.676 81.4621 275.488 72.8083 274.713 71.4736C271.299 65.5747 273.546 62.2206 270.365 57.2712C266.635 51.4734 260.908 50.9656 254.606 45.1465C248.824 39.8099 248.849 33.4732 250.847 31.6872C252.758 29.9713 265.338 39.2379 277.742 46.9695C286.351 52.3353 293.89 58.8373 295.023 64.0475C296.538 71.0203 291.929 80.0943 286.422 80.7636Z" fill="#AF6048"/>
<path d="M237.098 185.792L238.717 172.331C238.717 172.331 230.808 161.758 225.427 148.865C222.898 142.834 219.425 132.134 219.425 132.134L226.499 123.456L228.273 126.674C228.273 126.674 236.343 137.038 236.793 136.171C238.102 132.233 240.312 124.886 239.246 119.966C238.948 118.591 236.145 111.624 231.118 107.05C230.586 106.567 224.296 99.822 221.973 96.7383C217.143 90.3005 219.46 87.9405 220.818 86.7479C221.872 85.8199 229.291 94.4172 233.075 96.6877C236.725 98.8764 240.079 103.291 243.472 107.194C238.997 96.4523 232.812 87.5436 232.812 87.5436C232.812 87.5436 229.186 80.6544 235.674 78.7089C235.699 78.6875 235.853 78.8782 236.108 79.2323C238.147 82.0747 246.6 95.4503 246.05 94.3005C244.178 90.3802 244.863 90.0417 244.133 87.3938C243.081 83.5553 248.046 81.4502 248.046 81.4502C248.046 81.4502 251.937 90.1351 255.768 97.1605C255.042 94.3861 254.236 90.639 254.198 90.3919C253.234 84.2673 259.332 84.6992 259.332 84.6992C259.332 84.6992 259.421 85.672 259.958 87.6584C260.495 89.6448 267.384 103.822 268.758 107.892C272.688 119.542 274.232 131.864 273.299 144.124C272.883 149.661 270.916 164.891 270.318 170.801C270.281 171.19 271.207 174.848 272.653 180.229C277.278 197.617 237.098 185.792 237.098 185.792Z" fill="#ED9D80"/>
<path d="M255.511 97.2983C251.727 90.3488 247.748 82.2787 247.709 82.1989L248.232 81.9402C248.271 82.0219 252.244 90.0803 256.015 97.0182L255.511 97.2983Z" fill="#CE816A"/>
<path d="M246.063 94.6721C245.892 94.6721 245.735 94.4542 245.347 93.9153C245.069 93.5262 244.668 92.9522 244.155 92.2071C243.293 90.9542 242.104 89.2012 240.618 86.995C238.089 83.2401 235.548 79.4249 235.522 79.3879L236.009 79.0649C239.9 84.9016 245.832 93.7324 246.252 94.1449C246.205 94.1054 246.147 94.0821 246.086 94.0786C246.025 94.0751 245.965 94.0915 245.914 94.1254C245.866 94.1569 245.828 94.2021 245.806 94.2552C245.784 94.3082 245.778 94.3667 245.789 94.4231L246.312 94.1721C246.453 94.462 246.275 94.5904 246.217 94.6235C246.171 94.6534 246.118 94.6702 246.063 94.6721Z" fill="#CE816A"/>
<path d="M243.259 107.371C242.651 106.67 242.034 105.941 241.435 105.231C238.711 102.017 235.888 98.6935 232.934 96.9231C230.347 95.3666 226.145 91.5573 223.633 89.2771C222.681 88.4152 221.785 87.6 221.627 87.5125C221.677 87.5346 221.733 87.5407 221.787 87.53L221.676 86.9463C221.888 86.9055 221.895 86.9035 224.026 88.8354C226.52 91.1001 230.697 94.89 233.236 96.4231C236.271 98.2422 239.123 101.602 241.88 104.851C242.477 105.555 243.094 106.281 243.701 106.978L243.259 107.371Z" fill="#CE816A"/>
<path d="M256.384 117.425C255.238 114.207 251.485 104.604 249.429 101.022C248.622 99.6197 248.125 98.6508 247.688 97.7948C247.09 96.5657 246.397 95.3856 245.614 94.2656L246.092 93.9329C246.891 95.0738 247.598 96.276 248.207 97.5282C248.641 98.3784 249.135 99.3415 249.935 100.733C252.011 104.345 255.783 113.997 256.939 117.229L256.384 117.425Z" fill="#CE816A"/>
<path d="M249.174 119.224C248.869 118.571 248.579 117.847 248.273 117.084C247.287 114.615 246.059 111.541 242.999 107.111L243.48 106.779C245.669 109.908 247.462 113.297 248.816 116.868C249.131 117.658 249.4 118.341 249.701 118.981L249.174 119.224Z" fill="#CE816A"/>
<path d="M263.306 115.398C263.147 114.62 262.434 112.48 261.189 109.038C260.242 106.41 258.571 103.202 257.104 100.382C256.52 99.2813 255.987 98.2423 255.514 97.289L256.038 97.0283C256.508 97.9777 257.049 99.0147 257.621 100.112C259.106 102.954 260.787 106.174 261.746 108.84C262.215 110.135 263.637 114.079 263.886 115.279L263.306 115.398Z" fill="#CE816A"/>
<path d="M121.678 138.525L119 141.685L119.445 142.062L122.123 138.902L121.678 138.525Z" fill="#AF6048"/>
<path d="M115.805 134.618L113.128 137.779L113.573 138.156L116.25 134.995L115.805 134.618Z" fill="#AF6048"/>
<path d="M106.653 133.935L106.208 133.557C106.677 132.957 107.103 132.324 107.482 131.662C107.877 130.975 108.321 130.317 108.811 129.694L109.256 130.071C108.786 130.671 108.36 131.304 107.982 131.966C107.587 132.654 107.143 133.312 106.653 133.935Z" fill="#AF6048"/>
<path d="M259.826 90.9427C259.094 90.9514 258.377 90.7429 257.764 90.3434C256.515 89.5088 255.985 86.7325 256.367 86.0341C256.748 85.3356 259.09 85.0613 259.127 85.0613C259.127 85.0613 257.052 85.8512 257.108 86.6683C257.116 87.4642 257.285 88.2503 257.604 88.9796C258.199 90.2753 260.252 90.9407 260.433 90.9076C260.232 90.9336 260.029 90.9453 259.826 90.9427Z" fill="#CE816A"/>
<path d="M248.484 88.0144C248.078 88.0263 247.678 87.918 247.334 87.7031C246.258 86.9832 245.369 84.3295 245.692 83.7361C245.849 83.4482 247.941 81.9851 248.301 81.9851L248.279 82.5688C248.303 82.5732 248.327 82.5732 248.351 82.5688C248.083 82.6602 246.427 83.7556 246.211 84.0124C246.124 84.4209 246.768 86.6194 247.661 87.2167C248.439 87.74 249.931 87.1875 250.209 86.7945L250.686 87.133C250.369 87.5649 249.4 88.0144 248.484 88.0144Z" fill="#CE816A"/>
<path d="M236.487 84.5807C236.104 84.5864 235.729 84.4744 235.412 84.2597C234.324 83.5223 233.271 81.2227 233.589 80.639C233.768 80.3083 235.748 78.9989 236.048 79.0106L236.026 79.5942C236.049 79.5967 236.072 79.5967 236.094 79.5942C235.836 79.6798 234.324 80.6682 234.108 80.9192C234.061 81.2791 234.803 83.1488 235.738 83.785C236.503 84.3044 237.54 83.7849 238.159 83.4659C238.315 83.3711 238.485 83.3003 238.663 83.2558L238.746 83.8394C238.634 83.8842 238.524 83.9355 238.417 83.9931C237.962 84.213 237.235 84.5807 236.487 84.5807Z" fill="#CE816A"/>
<path d="M223.517 92.6001C223.101 92.5948 222.691 92.4992 222.316 92.32C221.26 91.8394 220.472 90.6818 220.159 89.746C220.013 89.3083 219.991 88.9892 220.098 88.7946C220.143 88.709 221.53 86.9055 221.96 86.9055L221.939 87.4892C221.978 87.4907 222.018 87.4827 222.054 87.4658C221.836 87.5942 220.733 88.8413 220.606 89.0729C220.53 89.3803 221.246 91.1954 222.552 91.7966C224.108 92.5009 225.081 91.3725 225.597 90.7655C225.681 90.6609 225.773 90.5633 225.873 90.4736L226.237 90.9309C226.168 90.9992 226.103 91.0713 226.042 91.1468C225.632 91.6196 224.785 92.6001 223.517 92.6001Z" fill="#CE816A"/>
<path d="M190.214 204.78L189.278 204.518C190.035 201.827 193.08 192.376 200.487 183.745L201.226 184.379C193.948 192.848 190.957 202.129 190.214 204.78Z" fill="#E27954"/>
<path d="M186.313 224.594L185.358 224.415C186.041 220.769 185.879 215.23 184.99 211.8L185.932 211.557C186.852 215.103 187.019 220.829 186.313 224.594Z" fill="#E27954"/>
<path d="M265.966 122.527L265.385 122.576L265.723 126.653L266.305 126.605L265.966 122.527Z" fill="#CE816A"/>
<path d="M259.179 123.886L258.598 123.935L258.937 128.014L259.518 127.966L259.179 123.886Z" fill="#CE816A"/>
<path d="M251.137 129.916C251.046 129.168 250.902 128.429 250.705 127.702C250.5 126.946 250.35 126.176 250.258 125.398L250.841 125.35C250.933 126.097 251.077 126.837 251.273 127.564C251.479 128.319 251.629 129.089 251.721 129.867L251.137 129.916Z" fill="#CE816A"/>
<path d="M91.0459 52.1909C90.2015 52.1909 89.4758 51.7474 89.2385 51.3563C88.3649 49.9069 88.9233 48.0839 89.2034 47.3679C89.5439 46.4983 90.1451 45.5489 90.721 45.3815C91.4389 45.1753 92.6451 45.6675 93.5245 46.0275C93.7469 46.1275 93.9756 46.2127 94.2093 46.2823L94.4934 46.3154L94.4739 46.5994C94.0984 50.7084 92.6899 51.8758 91.5751 52.1306C91.4015 52.1705 91.224 52.1907 91.0459 52.1909ZM91.1159 45.9146C91.0378 45.9135 90.9598 45.9233 90.8844 45.9438C90.6587 46.008 90.1431 46.5722 89.7482 47.58C89.2287 48.9049 89.2248 50.2026 89.7385 51.0547C89.8708 51.2726 90.5945 51.759 91.4447 51.5625C92.719 51.2687 93.5751 49.5781 93.8689 46.7901C93.7268 46.7415 93.5459 46.6675 93.3047 46.5683C92.686 46.3154 91.7035 45.9146 91.1159 45.9146Z" fill="#C15F40"/>
<path d="M89.5324 23.6709C88.7444 23.6663 87.9601 23.563 87.1978 23.3635C87.1978 23.3635 90.4449 23.1806 91.7406 22.7098C92.1472 22.5619 92.9935 22.2545 93.0091 21.9004C93.0188 21.665 92.1356 20.4724 92.1356 20.4724C93.0597 20.8051 93.6181 21.3635 93.5928 21.9277C93.5577 22.6689 92.585 23.023 91.941 23.2584C91.1682 23.5348 90.3531 23.6744 89.5324 23.6709Z" fill="#C15F40"/>
<path d="M284.128 84.2771C279.609 82.0806 274.49 71.6817 274.449 71.5824C273.247 68.6077 272.893 66.4112 272.566 64.4715C272.177 62.1368 271.846 60.1096 270.126 57.4364C268.06 54.2223 265.371 52.6659 262.258 50.8624C259.879 49.4849 257.182 47.9246 254.41 45.3662C249.805 41.1152 249.334 36.8622 249.352 35.2319C249.369 33.6015 249.842 32.2124 250.663 31.475C252.167 30.1248 258.056 33.8583 268.342 40.5763C271.455 42.6074 274.667 44.7086 277.906 46.7262C280.626 48.4076 283.248 50.2412 285.76 52.2184L285.399 52.6756C282.903 50.7141 280.298 48.8953 277.597 47.2281C274.352 45.2067 271.136 43.1035 268.023 41.0704C263.743 38.2786 259.712 35.6424 256.649 33.9147C252.678 31.6735 251.414 31.5917 251.052 31.9147C250.363 32.5334 249.947 33.7766 249.935 35.2416C249.914 38.4751 251.737 42.1035 254.815 44.944C257.538 47.4577 260.206 49.0005 262.558 50.3643C265.737 52.2048 268.482 53.7943 270.624 57.1251C272.41 59.9014 272.753 61.9773 273.153 64.382C273.469 66.2925 273.825 68.456 275.002 71.3684C275.321 72.1583 280.325 81.781 284.395 83.7577L284.128 84.2771Z" fill="#7F4032"/>
<path d="M257.221 39.9926C256.575 39.9812 255.935 39.8595 255.33 39.6327C255.297 39.621 252.128 38.4653 251.863 36.2085C251.69 34.7318 252.418 32.9011 254.143 32.2629L254.338 32.8116C252.727 33.4089 252.317 35.1307 252.435 36.1404C252.655 38.0179 255.488 39.0723 255.517 39.0821C258.863 40.2689 259.931 37.9264 260.443 36.8019C260.516 36.5879 260.629 36.3898 260.776 36.2182L261.165 36.6579C261.091 36.7832 261.026 36.9131 260.97 37.047C260.581 37.9284 259.638 39.9926 257.221 39.9926Z" fill="#7F4032"/>
<path d="M135.675 97.3862C135.461 97.3865 135.247 97.3623 135.039 97.3142C133.834 97.036 132.967 96.0301 132.776 94.6877C132.776 94.6877 133.233 95.1449 133.467 95.3181C134.229 95.8862 134.554 96.0807 135.301 96.176C136.823 96.3706 137.83 95.3181 139.352 93.713C139.546 93.5009 140.303 93.7499 140.303 93.7499C139.416 95.6585 137.523 97.3862 135.675 97.3862Z" fill="#AF6048"/>
<path d="M150.508 108.76C150.234 108.761 149.961 108.731 149.695 108.67C148.539 108.404 147.696 107.373 147.498 105.98C147.498 105.98 148.082 106.023 148.403 106.303C149.097 106.917 149.272 107.375 149.959 107.534C151.43 107.873 152.722 106.618 154.327 106.229C154.611 106.161 155.189 106.353 155.189 106.353C154.035 107.628 152.228 108.76 150.508 108.76Z" fill="#AF6048"/>
<path d="M156.771 122.454C156.463 122.456 156.156 122.422 155.856 122.353C154.699 122.087 153.858 121.056 153.658 119.663C153.658 119.663 154.38 119.579 154.642 119.921C155.201 120.651 155.432 121.058 156.119 121.217C157.243 121.476 158.422 121.1 160.479 120.439C161.025 120.264 161.228 120.845 161.228 120.845C159.539 121.917 158.045 122.454 156.771 122.454Z" fill="#AF6048"/>
<path d="M157.642 139.945C157.061 139.971 156.486 139.823 155.989 139.521C154.673 138.646 154.325 137.169 154.177 136.136C154.177 136.136 154.955 135.972 155.15 136.41C155.627 137.556 155.928 138.076 156.644 138.55C157.448 139.085 158.664 138.805 160.512 138.416C161.096 138.293 161.424 138.984 161.424 138.984C160.796 139.262 159.127 139.945 157.642 139.945Z" fill="#AF6048"/>
<path d="M74.6486 140.534L75.9502 131.275L49.1348 124.719C48.2417 127.55 47.3215 130.802 46.1075 134.316C43.4051 142.149 36.3681 152.342 28.0022 175.494C15.29 210.671 5.71211 253.835 2.29184 278.078C1.60312 282.954 1.16537 287.063 1 290.189H58.6173C60.8003 272.703 66.024 232.018 69.2809 216.274C76.2849 182.422 74.6486 140.534 74.6486 140.534Z" fill="#B7B9BB"/>
<path d="M82.3959 184.152L67.9521 290.19H119.885L127.375 188.549L82.3959 184.152Z" fill="#AF6048"/>
<path d="M159.87 236.897L151.36 290.19H211.543L213.796 236.897H159.87Z" fill="#D8705B"/>
<path d="M281.272 121.036L298.663 290.19H364.971L319.368 112.382L281.272 121.036Z" fill="#DDB17C"/>
<path d="M279.535 280.594C279.729 277.888 279.21 272.762 278.601 266.828C278.042 261.38 277.41 255.191 277.196 249.421C277.031 244.977 276.535 238.502 276.138 233.3C275.858 229.664 275.657 227.037 275.638 226.037C275.572 222.45 274.768 217.845 273.836 212.512C272.161 202.93 270.103 191.128 270.607 176.951L272.003 176.696L262.116 178.508L264.114 178.142C263.112 193.004 264.535 204.95 265.69 214.605C266.26 219.378 266.752 223.498 266.819 227.004C266.834 227.893 267.054 230.8 267.309 234.166C267.698 239.465 268.206 246.063 268.373 250.573C268.585 256.289 268.889 259.098 269.11 261.15C269.354 263.401 269.5 264.761 269.278 267.779C268.749 274.962 268.546 282.462 268.651 290.19H279.4C279.237 286.992 279.282 283.786 279.535 280.594Z" fill="#6A95AB"/>
<path d="M274.532 176.231C273.927 190.387 275.991 202.251 277.668 211.835C278.628 217.327 279.456 222.07 279.528 225.96C279.546 226.847 279.764 229.697 280.017 232.997C280.417 238.234 280.917 244.75 281.085 249.271C281.293 254.913 281.919 261.03 282.472 266.425C283.098 272.544 283.639 277.826 283.416 280.875C283.167 283.971 283.126 287.082 283.293 290.184H294.832C290.762 257.948 280.919 181.373 279.347 175.342L274.532 176.231Z" fill="#6A95AB"/>
<path d="M265.396 267.493C265.59 264.827 265.476 263.738 265.242 261.567C265.014 259.458 264.701 256.571 264.485 250.718C264.32 246.281 263.826 239.726 263.427 234.458C263.149 230.761 262.946 228.076 262.927 227.076C262.867 223.769 262.384 219.736 261.826 215.068C260.676 205.461 259.263 193.628 260.164 178.865L252.431 180.284L254.24 179.953C253.246 199.517 253.545 213.549 253.767 223.899C253.796 225.273 253.826 226.564 253.847 227.79C253.865 228.745 254.005 231.041 254.182 233.946C254.423 237.926 254.723 242.88 254.884 247.209C255.304 258.528 255.563 273.328 255.139 279.071C254.944 281.849 254.569 284.223 254.215 286.52C254.02 287.713 253.845 288.917 253.678 290.197H264.767C264.655 282.367 264.861 274.773 265.396 267.493Z" fill="#6A95AB"/>
<path d="M251.26 278.777C251.672 273.182 251.412 258.561 250.995 247.345C250.838 243.065 250.538 238.135 250.297 234.173C250.118 231.224 249.976 228.891 249.956 227.854C249.935 226.64 249.91 225.35 249.878 223.983C249.67 214.313 249.363 199.957 250.308 180.673L237.431 183.035L229.197 290.19H233.522C234.071 286.456 234.74 282.991 235.357 279.826C236.123 275.903 236.785 272.514 236.991 269.709C237.106 268.168 237.326 266.384 237.575 264.32C238.227 259.036 239.12 251.798 238.8 243.205C238.513 235.456 238.316 226.473 238.279 224.49C238.098 214.644 238.199 203.961 241.254 182.342L245.289 181.603C242.094 203.807 241.981 214.543 242.176 224.418C242.213 226.393 242.408 235.343 242.694 243.061C243.024 251.965 242.11 259.38 241.444 264.794C241.195 266.81 240.981 268.549 240.874 269.995C240.651 273.042 239.968 276.536 239.178 280.581C238.594 283.528 237.979 286.75 237.458 290.199H249.756C249.95 288.699 250.159 287.308 250.371 285.931C250.727 283.596 251.065 281.4 251.26 278.777Z" fill="#6A95AB"/>
<path d="M240.872 269.985C240.979 268.54 241.193 266.8 241.442 264.785C242.108 259.37 243.022 251.956 242.691 243.051C242.405 235.333 242.211 226.384 242.174 224.409C241.991 214.533 242.098 203.798 245.287 181.593L241.252 182.333C238.197 203.951 238.096 214.629 238.277 224.481C238.314 226.463 238.51 235.446 238.798 243.195C239.117 251.789 238.215 259.026 237.573 264.31C237.32 266.374 237.1 268.158 236.989 269.699C236.783 272.514 236.121 275.904 235.355 279.816C234.738 282.978 234.069 286.447 233.52 290.18H237.454C237.975 286.731 238.6 283.509 239.174 280.561C239.966 276.526 240.649 273.032 240.872 269.985Z" fill="#7FA9BA"/>
<path d="M255.139 279.063C255.563 273.32 255.305 258.52 254.884 247.201C254.723 242.872 254.423 237.919 254.182 233.938C254.005 231.033 253.865 228.738 253.847 227.782C253.826 226.564 253.797 225.273 253.768 223.891C253.546 213.541 253.246 199.51 254.24 179.945L252.431 180.276L250.309 180.665C249.363 199.949 249.67 214.306 249.879 223.975C249.907 225.342 249.933 226.633 249.956 227.847C249.976 228.884 250.118 231.216 250.297 234.166C250.538 238.127 250.838 243.055 250.995 247.337C251.412 258.553 251.672 273.174 251.26 278.769C251.065 281.392 250.727 283.588 250.369 285.913C250.157 287.291 249.943 288.682 249.754 290.182H253.678C253.846 288.902 254.03 287.697 254.215 286.505C254.569 284.215 254.935 281.841 255.139 279.063Z" fill="#7FA9BA"/>
<path d="M269.277 267.779C269.499 264.761 269.353 263.401 269.11 261.15C268.888 259.098 268.585 256.286 268.373 250.572C268.205 246.063 267.707 239.465 267.309 234.166C267.054 230.8 266.834 227.893 266.818 227.004C266.752 223.502 266.26 219.377 265.69 214.605C264.534 204.949 263.112 193.009 264.114 178.142L262.116 178.507L260.17 178.865C259.27 193.628 260.682 205.461 261.832 215.068C262.39 219.737 262.873 223.765 262.933 227.076C262.953 228.076 263.155 230.753 263.433 234.457C263.822 239.726 264.326 246.28 264.491 250.718C264.707 256.57 265.021 259.458 265.248 261.567C265.482 263.738 265.598 264.827 265.402 267.493C264.867 274.773 264.661 282.366 264.768 290.189H268.659C268.546 282.462 268.748 274.962 269.277 267.779Z" fill="#7FA9BA"/>
<path d="M283.416 280.88C283.639 277.832 283.098 272.55 282.472 266.431C281.919 261.036 281.293 254.921 281.085 249.277C280.918 244.756 280.418 238.24 280.017 233.002C279.764 229.695 279.546 226.853 279.528 225.965C279.456 222.074 278.628 217.333 277.668 211.841C275.991 202.251 273.927 190.387 274.532 176.237L272.003 176.702L270.606 176.957C270.102 191.134 272.163 202.936 273.836 212.518C274.768 217.851 275.571 222.456 275.637 226.043C275.657 227.043 275.857 229.67 276.137 233.306C276.526 238.508 277.03 244.979 277.196 249.427C277.41 255.197 278.042 261.38 278.6 266.834C279.209 272.767 279.735 277.894 279.534 280.6C279.281 283.792 279.236 286.998 279.4 290.196H283.291C283.124 287.091 283.166 283.979 283.416 280.88Z" fill="#7FA9BA"/>
<path d="M70.7717 137.318C70.2392 137.318 69.7186 137.16 69.2758 136.864C68.833 136.568 68.4879 136.148 68.2841 135.656C68.0803 135.164 68.0269 134.623 68.1308 134.1C68.2347 133.578 68.4912 133.098 68.8678 132.722C69.2443 132.345 69.7241 132.088 70.2464 131.985C70.7688 131.881 71.3101 131.934 71.8022 132.138C72.2942 132.342 72.7147 132.687 73.0106 133.13C73.3065 133.572 73.4644 134.093 73.4644 134.626C73.4633 135.339 73.1793 136.024 72.6746 136.528C72.1698 137.033 71.4856 137.317 70.7717 137.318ZM70.7717 132.518C70.3545 132.518 69.9467 132.642 69.5999 132.874C69.253 133.106 68.9827 133.435 68.8231 133.821C68.6636 134.206 68.6219 134.63 68.7034 135.04C68.785 135.449 68.986 135.825 69.2812 136.119C69.5763 136.414 69.9523 136.615 70.3615 136.696C70.7707 136.777 71.1948 136.735 71.5802 136.575C71.9655 136.415 72.2947 136.145 72.5262 135.798C72.7577 135.451 72.8811 135.043 72.8807 134.626C72.8802 134.067 72.6578 133.531 72.2623 133.135C71.8669 132.74 71.3307 132.518 70.7717 132.518Z" fill="#6A95AB"/>
<path d="M45.4346 136.102C50.3763 136.731 55.3413 137.532 60.2207 138.509C65.0612 139.482 69.9193 140.637 74.6975 141.955C74.682 141.371 74.6683 140.956 74.6606 140.735C69.9679 139.449 65.2013 138.318 60.4581 137.365C55.6506 136.392 50.7556 135.614 45.882 134.982C45.7381 135.346 45.5889 135.72 45.4346 136.102Z" fill="#6A95AB"/>
<path d="M36.8757 181.463L36.3135 181.305C39.1104 171.417 42.4925 161.704 46.442 152.217C48.4556 147.389 51.3234 140.78 53.193 136.898L53.7183 137.153C51.8545 141.023 48.9907 147.62 46.9809 152.443C43.0401 161.907 39.6657 171.598 36.8757 181.463Z" fill="#6A95AB"/>
<path d="M63.5945 187.171L63.0342 187.012C65.5478 178.115 66.3727 170.825 67.1743 158.801C67.7229 150.55 67.9194 143.431 67.9194 139.842H68.5031C68.5031 143.441 68.3086 150.575 67.756 158.838C66.9506 170.904 66.1237 178.224 63.5945 187.171Z" fill="#6A95AB"/>
<path d="M87.0691 220.302C84.643 214.872 85.5009 208.654 89.2092 204.833C92.2014 201.743 96.0186 201.136 98.0341 201.035L98.1236 202.981C96.7345 203.045 93.2267 203.485 90.6061 206.187C87.4504 209.444 86.7441 214.798 88.8551 219.512L87.0691 220.302Z" fill="#CC7E6D"/>
<path d="M95.8741 261.991C89.9266 261.893 84.6541 258.489 82.7553 253.518C81.2203 249.498 82.2786 245.776 83.0432 243.915L84.8429 244.654C84.3137 245.938 83.23 249.306 84.5724 252.825C86.1911 257.061 90.7457 259.963 95.9052 260.047L95.8741 261.991Z" fill="#CC7E6D"/>
<path d="M114.153 241.965C108.511 241.965 103.77 237.751 102.262 234.738C100.221 230.652 100.169 226.411 100.597 225.047L102.453 225.631C102.235 226.327 102.064 230.006 104.009 233.87C105.176 236.193 109.531 240.374 114.82 239.998L114.959 241.944C114.686 241.958 114.418 241.965 114.153 241.965Z" fill="#CC7E6D"/>
<path d="M100.038 285.538C99.7162 285.547 99.3944 285.51 99.083 285.427L99.6667 283.569C100.486 283.789 105.445 282.999 108.449 280.275C113.686 275.526 114.091 272.794 113.733 268.102L115.679 267.954C116.091 273.384 115.336 276.66 109.76 281.717C106.951 284.258 102.338 285.538 100.038 285.538Z" fill="#CC7E6D"/>
<path d="M74.0843 285.608C79.6583 280.549 80.4151 277.275 80.0007 271.845L78.0551 271.993C78.4131 276.685 78.0084 279.417 72.771 284.166C71.5181 285.304 69.9227 286.112 68.4305 286.633L68.1406 288.758C70.1601 288.162 72.3955 287.139 74.0843 285.608Z" fill="#CC7E6D"/>
<path d="M121.547 206.603C118.543 209.327 113.581 210.119 112.762 209.899L112.179 211.755C112.469 211.83 112.77 211.864 113.07 211.854C115.251 211.854 119.879 210.732 122.852 208.045C124.07 206.969 125.189 205.786 126.196 204.51L126.554 199.669C125.963 201.817 124.552 203.879 121.547 206.603Z" fill="#CC7E6D"/>
<path d="M207.09 246.917C206.416 246.917 205.758 246.717 205.198 246.343C204.638 245.969 204.202 245.437 203.944 244.815C203.687 244.193 203.619 243.509 203.75 242.848C203.882 242.188 204.206 241.581 204.682 241.105C205.158 240.629 205.765 240.304 206.426 240.173C207.086 240.042 207.771 240.109 208.393 240.367C209.015 240.625 209.547 241.061 209.921 241.621C210.295 242.181 210.494 242.839 210.494 243.512C210.493 244.415 210.134 245.28 209.496 245.919C208.858 246.557 207.992 246.916 207.09 246.917ZM207.09 241.08C206.609 241.08 206.139 241.223 205.739 241.49C205.339 241.758 205.027 242.137 204.843 242.582C204.659 243.026 204.611 243.515 204.705 243.987C204.798 244.459 205.03 244.892 205.37 245.232C205.71 245.572 206.144 245.804 206.615 245.898C207.087 245.991 207.576 245.943 208.02 245.759C208.465 245.575 208.845 245.263 209.112 244.863C209.379 244.464 209.522 243.993 209.522 243.512C209.521 242.868 209.264 242.25 208.808 241.794C208.352 241.338 207.734 241.081 207.09 241.08Z" fill="#C45A45"/>
<path d="M213.269 249.578C208.234 248.742 198.413 248.58 188.874 248.424C185.629 248.372 182.564 248.321 179.825 248.245C177.559 248.183 174.183 248.245 170.592 248.319C166.222 248.405 161.407 248.498 158.049 248.362L157.739 250.308C161.126 250.459 165.938 250.366 170.628 250.275C174.189 250.205 177.551 250.138 179.773 250.201C182.524 250.277 185.594 250.327 188.845 250.38C198.076 250.53 208.417 250.699 213.189 251.547L213.269 249.578Z" fill="#C45A45"/>
<path d="M284.069 125.721C284.032 125.041 283.953 124.364 283.832 123.694C283.704 122.981 283.62 122.261 283.583 121.538L284.556 121.515C284.593 122.195 284.672 122.872 284.793 123.542C284.921 124.255 285.004 124.975 285.042 125.698L284.069 125.721Z" fill="#C1986C"/>
<path d="M288.739 125.137C288.678 123.998 288.553 122.863 288.363 121.739C288.326 121.493 288.291 121.25 288.256 121.011L289.229 120.873C289.264 121.11 289.299 121.351 289.336 121.597C289.533 122.761 289.663 123.935 289.725 125.114L288.739 125.137Z" fill="#C1986C"/>
<path d="M293.7 124.262C293.673 123.223 293.28 121.7 292.992 120.589C292.938 120.375 292.885 120.175 292.838 119.99L293.782 119.754C293.827 119.935 293.879 120.144 293.934 120.338C294.233 121.505 294.644 123.079 294.673 124.229L293.7 124.262Z" fill="#C1986C"/>
<path d="M298.174 123.386C298.147 122.347 297.754 120.824 297.466 119.713C297.412 119.499 297.359 119.299 297.312 119.114L298.256 118.878C298.301 119.059 298.353 119.268 298.408 119.462C298.707 120.629 299.118 122.203 299.147 123.353L298.174 123.386Z" fill="#C1986C"/>
<path d="M302.844 122.316C302.817 121.278 302.424 119.754 302.136 118.643C302.081 118.429 302.029 118.229 301.982 118.044L302.926 117.809C302.97 117.99 303.023 118.198 303.077 118.392C303.377 119.56 303.787 121.134 303.817 122.283L302.844 122.316Z" fill="#C1986C"/>
<path d="M307.221 121.246C307.194 120.207 306.801 118.684 306.513 117.573C306.459 117.359 306.406 117.159 306.359 116.974L307.303 116.739C307.348 116.919 307.4 117.128 307.455 117.322C307.754 118.49 308.165 120.063 308.194 121.213L307.221 121.246Z" fill="#C1986C"/>
<path d="M311.697 120.273C311.67 119.235 311.277 117.711 310.989 116.6C310.934 116.386 310.882 116.186 310.835 116.001L311.779 115.766C311.823 115.947 311.876 116.155 311.93 116.349C312.23 117.517 312.64 119.091 312.67 120.24L311.697 120.273Z" fill="#C1986C"/>
<path d="M316.56 119.495C316.533 118.456 316.14 116.933 315.852 115.822C315.797 115.608 315.745 115.408 315.698 115.223L316.642 114.987C316.687 115.168 316.739 115.376 316.794 115.571C317.093 116.738 317.504 118.312 317.533 119.462L316.56 119.495Z" fill="#C1986C"/>
<path d="M281.914 127.279C287.229 126.779 295.653 125.005 302.202 123.623C304.731 123.092 306.897 122.635 308.27 122.386C311.449 121.802 314.095 121.265 316.222 120.83C318.212 120.419 319.85 120.083 321.28 119.857L320.794 117.966C319.35 118.207 317.735 118.549 315.829 118.939C313.601 119.398 311.077 119.911 307.922 120.495C306.521 120.748 304.332 121.209 301.799 121.744C295.603 123.05 286.902 124.882 281.713 125.373L281.914 127.279Z" fill="#C1986C"/>
</g>
</svg>
